# xmcd
#
# Track frame offsets:
#	150
#	29735
#	51748
#	72285
#	98033
#	118460
#	136965
#	163520
#	195723
#	246230
#	268853
#
# Disc length: 3816 seconds
#
# Revision: 1
# Processed by: cddbd v1.4PL0 Copyright (c) Steve Scherf et al.
# Submitted via: audiograbber 1.80.04
#
DISCID=af0ee60b
DTITLE=Van Morrison - Pure
DYEAR=1900
DGENRE=Rock
TTITLE0=It's not the Twilight Zone
TTITLE1=I Like it Like that
TTITLE2=T for Texas
TTITLE3=Bulbs
TTITLE4=Buffy Flow
TTITLE5=Heathrow Shuffle
TTITLE6=Naked in the Jungle
TTITLE7=Street Choir
TTITLE8=Pure
TTITLE9=Since I Fell For You
TTITLE10=Send in the Clowns
EXTD=
EXTT0=
EXTT1=
EXTT2=
EXTT3=
EXTT4=
EXTT5=
EXTT6=
EXTT7=
EXTT8=
EXTT9=
EXTT10=
PLAYORDER=
